<svg xmlns="http://www.w3.org/2000/svg" version="1.1" xmlns:xlink="http://www.w3.org/1999/xlink" xmlns:svgjs="http://svgjs.dev/svgjs" width="2000" height="1247" viewBox="0 0 2000 1247"><g transform="matrix(1,0,0,1,-1.2121212121212466,0.5048582995951847)"><svg viewBox="0 0 396 247" data-background-color="#2d2d2d" preserveAspectRatio="xMidYMid meet" height="1247" width="2000" xmlns="http://www.w3.org/2000/svg" xmlns:xlink="http://www.w3.org/1999/xlink"><g id="tight-bounds" transform="matrix(1,0,0,1,0.2400000000000091,-0.09999999999999432)"><svg viewBox="0 0 395.52 247.2" height="247.2" width="395.52"><g><svg></svg></g><g><svg viewBox="0 0 395.52 247.2" height="247.2" width="395.52"><g transform="matrix(1,0,0,1,75.54432,52.922389323649554)"><svg viewBox="0 0 244.43135999999998 141.35522135270088" height="141.35522135270088" width="244.43135999999998"><g><svg viewBox="0 0 244.43135999999998 141.35522135270088" height="141.35522135270088" width="244.43135999999998"><g><svg viewBox="0 0 244.43135999999998 141.35522135270088" height="141.35522135270088" width="244.43135999999998"><g><svg viewBox="0 0 244.43135999999998 141.35522135270088" height="141.35522135270088" width="244.43135999999998"><g id="textblocktransform"><svg viewBox="0 0 244.43135999999998 141.35522135270088" height="141.35522135270088" width="244.43135999999998" id="textblock"><g><svg viewBox="0 0 244.43135999999998 141.35522135270088" height="141.35522135270088" width="244.43135999999998"><g transform="matrix(1,0,0,1,0,0)"><svg width="244.43135999999998" viewBox="2.05 -31.85 55.07 31.85" height="141.35522135270088" data-palette-color="#ffeede"><path d="M7.88 0L2.13 0 13.35-15.83 2.05-31.85 7.85-31.85 16.53-19.5 24.33-31.85 30.08-31.85 19.15-15.9 30.78 0 24.88 0 16.03-12.13 7.88 0ZM42.6 0L37.85 0 37.85-31.85 42.6-31.85 42.6 0ZM57.12 0L52.37 0 52.37-31.85 57.12-31.85 57.12 0Z" opacity="1" transform="matrix(1,0,0,1,0,0)" fill="#ffeede" class="wordmark-text-0" data-fill-palette-color="primary" id="text-0"></path></svg></g></svg></g></svg></g></svg></g></svg></g></svg></g></svg></g><g><path d="M245.816 0c68.262 0 123.6 55.338 123.6 123.6 0 68.262-55.338 123.6-123.6 123.6-34.149 0-65.064-13.849-87.434-36.237h9.267c20.741 18.571 48.135 29.863 78.167 29.863 64.742 0 117.226-52.484 117.226-117.226 0-64.742-52.484-117.226-117.226-117.226-30.031 0-57.425 11.293-78.167 29.863l-9.267 0c22.37-22.388 53.285-36.237 87.434-36.237z" fill="#f6f2af" stroke="transparent" data-fill-palette-color="tertiary"></path></g></svg></g><defs></defs></svg><rect width="395.52" height="247.2" fill="none" stroke="none" visibility="hidden"></rect></g></svg></g></svg>